<?xml version="1.0" standalone="no"?>
<!DOCTYPE svg PUBLIC "-//W3C//DTD SVG 20010904//EN"
 "http://www.w3.org/TR/2001/REC-SVG-20010904/DTD/svg10.dtd">
<svg version="1.0" xmlns="http://www.w3.org/2000/svg"
 width="288.000000pt" height="288.000000pt" viewBox="0 0 288.000000 288.000000"
 preserveAspectRatio="xMidYMid meet">
<metadata>
Created by potrace 1.14, written by Peter Selinger 2001-2017
</metadata>
<g transform="translate(0.000000,288.000000) scale(0.100000,-0.100000)"
fill="#000000" stroke="none">
<path d="M1300 2350 c-142 -15 -312 -87 -426 -178 -62 -51 -139 -140 -181
-210 -80 -135 -147 -387 -152 -576 -2 -80 13 -105 24 -38 25 149 26 152 106
213 34 26 48 61 88 215 15 57 50 106 91 126 31 16 68 18 310 18 151 0 394 -7
540 -15 146 -8 292 -15 325 -16 33 -1 76 -8 95 -16 40 -16 90 -60 90 -80 0 -7
4 -21 9 -31 5 -9 17 -57 27 -107 23 -124 26 -129 83 -166 57 -38 69 -59 76
-137 7 -76 14 -104 24 -98 32 20 16 320 -25 462 -54 186 -107 280 -220 390
-202 198 -515 284 -884 244z"/>
<path d="M955 1611 c-22 -10 -46 -28 -53 -40 -16 -27 0 -27 37 0 47 35 125 36
205 3 35 -14 7 15 -34 36 -49 25 -103 25 -155 1z"/>
<path d="M1000 1518 c-81 -14 -134 -73 -145 -162 -18 -139 66 -229 197 -212
111 15 168 76 176 186 4 64 -24 130 -70 163 -34 25 -99 35 -158 25z m138 -38
c35 -21 47 -48 13 -30 -11 5 -40 10 -65 10 -38 0 -53 -6 -82 -33 -31 -28 -37
-41 -41 -83 -9 -107 68 -157 185 -119 39 13 25 -13 -20 -37 -50 -25 -127 -30
-175 -9 -50 21 -78 74 -77 147 1 75 24 120 80 151 52 30 136 31 182 3z"/>
<path d="M1805 1476 c-63 -28 -95 -85 -95 -166 0 -76 25 -126 77 -156 24 -15
46 -24 49 -22 2 3 -9 11 -25 17 -117 49 -122 260 -7 312 50 23 111 24 160 4
20 -8 36 -13 36 -10 0 2 -16 12 -36 20 -45 18 -119 19 -159 1z"/>
<path d="M2028 1429 c35 -40 28 -66 -9 -33 -10 9 -36 18 -58 21 -147 20 -190
-175 -51 -231 36 -14 44 -14 86 0 25 8 48 14 50 12 11 -12 -33 -50 -74 -63
-39 -13 -41 -14 -12 -10 75 11 119 72 120 168 0 66 -17 113 -51 142 l-24 20
23 -26z"/>
<path d="M1417 1184 c-15 -54 -14 -84 4 -84 10 0 16 25 22 93 6 63 -7 60 -26
-9z"/>
<path d="M1873 1123 c9 -2 23 -2 30 0 6 3 -1 5 -18 5 -16 0 -22 -2 -12 -5z"/>
<path d="M1214 999 c-11 -19 31 -63 91 -94 73 -37 185 -46 262 -21 54 18 123
70 123 92 0 25 -25 15 -68 -25 -93 -89 -271 -76 -348 24 -27 36 -47 44 -60 24z"/>
<path d="M1053 327 c-27 -25 -34 -37 -27 -50 8 -14 12 -14 39 -1 25 11 30 21
31 49 0 19 -1 35 -3 35 -2 0 -20 -15 -40 -33z"/>
<path d="M1140 310 c0 -13 7 -20 20 -20 18 0 19 3 10 20 -6 11 -15 20 -20 20
-6 0 -10 -9 -10 -20z"/>
<path d="M1143 255 c-3 -9 -3 -19 1 -22 7 -7 36 16 36 28 0 15 -30 10 -37 -6z"/>
<path d="M902 194 c-32 -27 -34 -44 -6 -44 15 0 63 48 64 63 0 15 -27 6 -58
-19z"/>
<path d="M1426 181 c-23 -26 -20 -31 19 -31 39 0 47 18 16 37 -15 10 -22 9
-35 -6z"/>
</g>
</svg>
